<mxfile host="app.diagrams.net" agent="Mozilla/5.0 (Windows NT 10.0; Win64; x64) AppleWebKit/537.36 (KHTML, like Gecko) Chrome/138.0.0.0 Safari/537.36" version="27.2.0">
  <diagram name="PÃ¡gina-1" id="CSLVOGBIZwPzC676CMnz">
    <mxGraphModel dx="1342" dy="663" grid="1" gridSize="10" guides="1" tooltips="1" connect="1" arrows="1" fold="1" page="1" pageScale="1" pageWidth="827" pageHeight="1169" math="0" shadow="0">
      <root>
        <mxCell id="0" />
        <mxCell id="1" parent="0" />
        <mxCell id="c8fQ7Zv_BEuDxln96nX9-7" value="" style="edgeStyle=orthogonalEdgeStyle;rounded=0;orthogonalLoop=1;jettySize=auto;html=1;" edge="1" parent="1" source="c8fQ7Zv_BEuDxln96nX9-1" target="c8fQ7Zv_BEuDxln96nX9-6">
          <mxGeometry relative="1" as="geometry" />
        </mxCell>
        <mxCell id="c8fQ7Zv_BEuDxln96nX9-1" value="&lt;font style=&quot;font-size: 10px;&quot;&gt;inico&lt;/font&gt;" style="ellipse;whiteSpace=wrap;html=1;" vertex="1" parent="1">
          <mxGeometry x="310" y="50" width="60" height="30" as="geometry" />
        </mxCell>
        <mxCell id="c8fQ7Zv_BEuDxln96nX9-5" style="edgeStyle=orthogonalEdgeStyle;rounded=0;orthogonalLoop=1;jettySize=auto;html=1;" edge="1" parent="1" source="c8fQ7Zv_BEuDxln96nX9-2" target="c8fQ7Zv_BEuDxln96nX9-4">
          <mxGeometry relative="1" as="geometry" />
        </mxCell>
        <mxCell id="c8fQ7Zv_BEuDxln96nX9-2" value="&lt;div&gt;&lt;font style=&quot;font-size: 10px;&quot;&gt;&amp;nbsp;Player player;&lt;/font&gt;&lt;/div&gt;&lt;div&gt;&lt;font style=&quot;font-size: 10px;&quot;&gt;&amp;nbsp; &amp;nbsp; load(player)&lt;/font&gt;&lt;/div&gt;&lt;div&gt;&lt;font style=&quot;font-size: 10px;&quot;&gt;&amp;nbsp; &amp;nbsp; levelSelector(player.lvl, player)&lt;/font&gt;&lt;/div&gt;" style="rounded=0;whiteSpace=wrap;html=1;" vertex="1" parent="1">
          <mxGeometry x="290" y="170" width="120" height="60" as="geometry" />
        </mxCell>
        <mxCell id="c8fQ7Zv_BEuDxln96nX9-4" value="&lt;span style=&quot;font-size: 10px;&quot;&gt;fin&lt;/span&gt;" style="ellipse;whiteSpace=wrap;html=1;" vertex="1" parent="1">
          <mxGeometry x="320" y="260" width="60" height="30" as="geometry" />
        </mxCell>
        <mxCell id="c8fQ7Zv_BEuDxln96nX9-6" value="&lt;span style=&quot;font-size: 10px;&quot;&gt;game()&lt;/span&gt;" style="ellipse;whiteSpace=wrap;html=1;" vertex="1" parent="1">
          <mxGeometry x="310" y="110" width="60" height="30" as="geometry" />
        </mxCell>
        <mxCell id="c8fQ7Zv_BEuDxln96nX9-9" style="edgeStyle=orthogonalEdgeStyle;rounded=0;orthogonalLoop=1;jettySize=auto;html=1;entryX=0.567;entryY=-0.003;entryDx=0;entryDy=0;entryPerimeter=0;" edge="1" parent="1" source="c8fQ7Zv_BEuDxln96nX9-6" target="c8fQ7Zv_BEuDxln96nX9-2">
          <mxGeometry relative="1" as="geometry" />
        </mxCell>
        <mxCell id="c8fQ7Zv_BEuDxln96nX9-10" value="" style="edgeStyle=orthogonalEdgeStyle;rounded=0;orthogonalLoop=1;jettySize=auto;html=1;" edge="1" parent="1" source="c8fQ7Zv_BEuDxln96nX9-11" target="c8fQ7Zv_BEuDxln96nX9-15">
          <mxGeometry relative="1" as="geometry" />
        </mxCell>
        <mxCell id="c8fQ7Zv_BEuDxln96nX9-11" value="&lt;font style=&quot;font-size: 10px;&quot;&gt;inico&lt;/font&gt;" style="ellipse;whiteSpace=wrap;html=1;" vertex="1" parent="1">
          <mxGeometry x="350" y="324.5" width="60" height="30" as="geometry" />
        </mxCell>
        <mxCell id="c8fQ7Zv_BEuDxln96nX9-12" style="edgeStyle=orthogonalEdgeStyle;rounded=0;orthogonalLoop=1;jettySize=auto;html=1;" edge="1" parent="1" source="c8fQ7Zv_BEuDxln96nX9-13" target="c8fQ7Zv_BEuDxln96nX9-14">
          <mxGeometry relative="1" as="geometry" />
        </mxCell>
        <mxCell id="c8fQ7Zv_BEuDxln96nX9-13" value="&lt;div&gt;&lt;div&gt;&lt;span style=&quot;font-size: 10px; background-color: transparent; color: light-dark(rgb(0, 0, 0), rgb(255, 255, 255));&quot;&gt;Player player&lt;/span&gt;&lt;/div&gt;&lt;div&gt;&lt;span style=&quot;font-size: 10px;&quot;&gt;&amp;nbsp;infiniteLoad(player)&lt;/span&gt;&lt;/div&gt;&lt;div&gt;&lt;span style=&quot;font-size: 10px;&quot;&gt;&amp;nbsp; &amp;nbsp; player.lvl = randomNum(1,10)&lt;/span&gt;&lt;/div&gt;&lt;div&gt;&lt;span style=&quot;font-size: 10px;&quot;&gt;&amp;nbsp; &amp;nbsp; infiniteLevels(player.lvl, player)&lt;/span&gt;&lt;/div&gt;&lt;/div&gt;" style="rounded=0;whiteSpace=wrap;html=1;" vertex="1" parent="1">
          <mxGeometry x="340" y="470" width="150" height="90" as="geometry" />
        </mxCell>
        <mxCell id="c8fQ7Zv_BEuDxln96nX9-14" value="&lt;span style=&quot;font-size: 10px;&quot;&gt;fin&lt;/span&gt;" style="ellipse;whiteSpace=wrap;html=1;" vertex="1" parent="1">
          <mxGeometry x="390" y="610" width="60" height="30" as="geometry" />
        </mxCell>
        <mxCell id="c8fQ7Zv_BEuDxln96nX9-15" value="&lt;span style=&quot;font-size: 10px;&quot;&gt;infiniteMode()&lt;/span&gt;" style="ellipse;whiteSpace=wrap;html=1;" vertex="1" parent="1">
          <mxGeometry x="330" y="384.5" width="100" height="45.5" as="geometry" />
        </mxCell>
        <mxCell id="c8fQ7Zv_BEuDxln96nX9-16" style="edgeStyle=orthogonalEdgeStyle;rounded=0;orthogonalLoop=1;jettySize=auto;html=1;entryX=0.567;entryY=-0.003;entryDx=0;entryDy=0;entryPerimeter=0;" edge="1" parent="1" source="c8fQ7Zv_BEuDxln96nX9-15" target="c8fQ7Zv_BEuDxln96nX9-13">
          <mxGeometry relative="1" as="geometry" />
        </mxCell>
      </root>
    </mxGraphModel>
  </diagram>
</mxfile>
